<svg width="28" height="27" viewBox="0 0 28 27" fill="none" xmlns="http://www.w3.org/2000/svg">
<path d="M2.63541 18.3037L2.63559 18.3041C3.28716 19.815 4.16685 21.1194 5.27378 22.2263C6.3807 23.3332 7.68505 24.2129 9.19599 24.8645L9.19641 24.8647C10.688 25.5087 12.2858 25.8334 14 25.8334C15.7142 25.8334 17.312 25.5087 18.8036 24.8647L18.804 24.8645C20.315 24.2129 21.6193 23.3332 22.7262 22.2263C23.8332 21.1194 24.7128 19.815 25.3644 18.3041L25.3646 18.3037C26.0086 16.8121 26.3333 15.2143 26.3333 13.5001C26.3333 11.7859 26.0086 10.1881 25.3646 8.69649L25.3644 8.69607C24.7128 7.18513 23.8332 5.88078 22.7262 4.77386C21.6193 3.66694 20.315 2.78679 18.804 2.13434L2.63541 18.3037ZM2.63541 18.3037C1.99138 16.8121 1.66667 15.2143 1.66667 13.5001C1.66667 11.7859 1.99138 10.1881 2.63541 8.69649L2.63559 8.69606M2.63541 18.3037L2.63559 8.69606M2.63559 8.69606C3.28716 7.18513 4.16685 5.88078 5.27378 4.77386M2.63559 8.69606L5.27378 4.77386M5.27378 4.77386C6.3808 3.66684 7.68529 2.78663 9.19641 2.13416M5.27378 4.77386L9.19641 2.13416M9.19641 2.13416C10.688 1.49102 12.2858 1.16675 14 1.16675M9.19641 2.13416L14 1.16675M14 1.16675C15.7142 1.16675 17.312 1.49102 18.8036 2.13416L14 1.16675Z" stroke="#BEBEBE" stroke-width="2"/>
</svg>
